# MagicaVoxel @ Ephtracy

# material
mtllib blueblock.mtl
usemtl palette

# normals
vn -1 0 0
vn 1 0 0
vn 0 0 1
vn 0 0 -1
vn 0 -1 0
vn 0 1 0

# texcoords
vt 0.587891 0.5
vt 0.779297 0.5

# verts
v -20 0 20
v -20 0 -20
v -20 5 20
v -20 5 -20
v 20 0 20
v 20 0 -20
v 20 5 20
v 20 5 -20
v -20 0 20
v -20 5 20
v 20 0 20
v 20 5 20
v -20 0 -20
v -20 5 -20
v 20 0 -20
v 20 5 -20
v -20 0 20
v 20 0 20
v -19 0 19
v 19 0 19
v -19 0 -19
v 19 0 -19
v -20 0 -20
v 20 0 -20
v -20 5 20
v 20 5 20
v -19 5 19
v 19 5 19
v 14 5 18
v 16 5 18
v 15 5 17
v 16 5 17
v 14 5 15
v 15 5 15
v 3 5 13
v 4 5 13
v 1 5 12
v 3 5 12
v 1 5 11
v 4 5 11
v -5 5 7
v -3 5 7
v -15 5 6
v -14 5 6
v -16 5 5
v -15 5 5
v -5 5 5
v -3 5 5
v -16 5 4
v -15 5 4
v -15 5 3
v -14 5 3
v 9 5 2
v 11 5 2
v 9 5 -0
v 11 5 -0
v -1 5 -5
v 1 5 -5
v -1 5 -7
v 1 5 -7
v -8 5 -11
v -6 5 -11
v 12 5 -11
v 14 5 -11
v -8 5 -13
v -6 5 -13
v 12 5 -13
v 14 5 -13
v 6 5 -14
v 7 5 -14
v 5 5 -15
v 6 5 -15
v 7 5 -15
v 8 5 -15
v 3 5 -16
v 4 5 -16
v 5 5 -16
v 8 5 -16
v -8 5 -18
v -4 5 -18
v -19 5 -19
v -8 5 -19
v -4 5 -19
v 3 5 -19
v 4 5 -19
v 19 5 -19
v -20 5 -20
v 20 5 -20

# faces
f 3/2/1 2/2/1 1/2/1
f 4/2/1 2/2/1 3/2/1
f 5/2/2 6/2/2 7/2/2
f 7/2/2 6/2/2 8/2/2
f 11/2/3 10/2/3 9/2/3
f 12/2/3 10/2/3 11/2/3
f 13/2/4 14/2/4 15/2/4
f 15/2/4 14/2/4 16/2/4
f 19/2/5 18/2/5 17/2/5
f 20/2/5 18/2/5 19/2/5
f 21/2/5 19/2/5 17/2/5
f 21/1/5 20/1/5 19/1/5
f 22/2/5 18/2/5 20/2/5
f 22/1/5 20/1/5 21/1/5
f 23/2/5 21/2/5 17/2/5
f 23/2/5 22/2/5 21/2/5
f 24/2/5 18/2/5 22/2/5
f 24/2/5 22/2/5 23/2/5
f 25/2/6 26/2/6 27/2/6
f 27/2/6 26/2/6 28/2/6
f 27/1/6 28/1/6 29/1/6
f 29/1/6 28/1/6 30/1/6
f 29/2/6 30/2/6 31/2/6
f 30/1/6 28/1/6 32/1/6
f 31/2/6 30/2/6 32/2/6
f 27/1/6 29/1/6 33/1/6
f 29/2/6 31/2/6 33/2/6
f 31/1/6 32/1/6 34/1/6
f 33/2/6 31/2/6 34/2/6
f 27/1/6 33/1/6 35/1/6
f 33/1/6 34/1/6 35/1/6
f 35/1/6 34/1/6 36/1/6
f 27/1/6 35/1/6 37/1/6
f 35/2/6 36/2/6 38/2/6
f 37/1/6 35/1/6 38/1/6
f 27/1/6 37/1/6 39/1/6
f 37/2/6 38/2/6 39/2/6
f 36/1/6 34/1/6 40/1/6
f 39/2/6 38/2/6 40/2/6
f 38/2/6 36/2/6 40/2/6
f 27/1/6 39/1/6 41/1/6
f 39/1/6 40/1/6 41/1/6
f 41/1/6 40/1/6 42/1/6
f 27/1/6 41/1/6 43/1/6
f 43/1/6 41/1/6 44/1/6
f 27/1/6 43/1/6 45/1/6
f 43/2/6 44/2/6 46/2/6
f 45/1/6 43/1/6 46/1/6
f 41/2/6 42/2/6 47/2/6
f 44/1/6 41/1/6 47/1/6
f 42/1/6 40/1/6 48/1/6
f 47/2/6 42/2/6 48/2/6
f 45/2/6 46/2/6 49/2/6
f 27/1/6 45/1/6 49/1/6
f 46/2/6 44/2/6 50/2/6
f 49/2/6 46/2/6 50/2/6
f 49/1/6 50/1/6 51/1/6
f 50/2/6 44/2/6 51/2/6
f 44/1/6 47/1/6 52/1/6
f 51/2/6 44/2/6 52/2/6
f 47/1/6 48/1/6 52/1/6
f 40/1/6 34/1/6 53/1/6
f 52/1/6 48/1/6 53/1/6
f 51/1/6 52/1/6 53/1/6
f 48/1/6 40/1/6 53/1/6
f 53/1/6 34/1/6 54/1/6
f 51/1/6 53/1/6 55/1/6
f 53/2/6 54/2/6 55/2/6
f 54/1/6 34/1/6 56/1/6
f 55/2/6 54/2/6 56/2/6
f 51/1/6 55/1/6 57/1/6
f 55/1/6 56/1/6 57/1/6
f 57/1/6 56/1/6 58/1/6
f 51/1/6 57/1/6 59/1/6
f 57/2/6 58/2/6 59/2/6
f 58/1/6 56/1/6 60/1/6
f 59/2/6 58/2/6 60/2/6
f 51/1/6 59/1/6 61/1/6
f 59/1/6 60/1/6 61/1/6
f 61/1/6 60/1/6 62/1/6
f 56/1/6 34/1/6 63/1/6
f 62/1/6 60/1/6 63/1/6
f 60/1/6 56/1/6 63/1/6
f 63/1/6 34/1/6 64/1/6
f 61/2/6 62/2/6 65/2/6
f 51/1/6 61/1/6 65/1/6
f 62/1/6 63/1/6 66/1/6
f 65/2/6 62/2/6 66/2/6
f 63/2/6 64/2/6 67/2/6
f 66/1/6 63/1/6 67/1/6
f 64/1/6 34/1/6 68/1/6
f 67/2/6 64/2/6 68/2/6
f 66/1/6 67/1/6 69/1/6
f 65/1/6 66/1/6 69/1/6
f 67/1/6 68/1/6 69/1/6
f 69/1/6 68/1/6 70/1/6
f 65/1/6 69/1/6 71/1/6
f 69/2/6 70/2/6 72/2/6
f 71/1/6 69/1/6 72/1/6
f 70/1/6 68/1/6 73/1/6
f 72/2/6 70/2/6 73/2/6
f 73/1/6 68/1/6 74/1/6
f 65/1/6 71/1/6 75/1/6
f 75/1/6 71/1/6 76/1/6
f 71/2/6 72/2/6 77/2/6
f 76/1/6 71/1/6 77/1/6
f 72/2/6 73/2/6 77/2/6
f 73/2/6 74/2/6 77/2/6
f 74/1/6 68/1/6 78/1/6
f 77/2/6 74/2/6 78/2/6
f 51/1/6 65/1/6 79/1/6
f 65/1/6 75/1/6 79/1/6
f 79/1/6 75/1/6 80/1/6
f 25/2/6 27/2/6 81/2/6
f 27/1/6 49/1/6 81/1/6
f 49/1/6 51/1/6 81/1/6
f 51/1/6 79/1/6 81/1/6
f 79/2/6 80/2/6 82/2/6
f 81/1/6 79/1/6 82/1/6
f 80/1/6 75/1/6 83/1/6
f 82/2/6 80/2/6 83/2/6
f 75/2/6 76/2/6 84/2/6
f 83/1/6 75/1/6 84/1/6
f 77/1/6 78/1/6 85/1/6
f 84/2/6 76/2/6 85/2/6
f 76/1/6 77/1/6 85/1/6
f 28/2/6 26/2/6 86/2/6
f 85/1/6 78/1/6 86/1/6
f 32/1/6 28/1/6 86/1/6
f 34/1/6 32/1/6 86/1/6
f 78/1/6 68/1/6 86/1/6
f 68/1/6 34/1/6 86/1/6
f 81/2/6 82/2/6 87/2/6
f 84/2/6 85/2/6 87/2/6
f 85/2/6 86/2/6 87/2/6
f 25/2/6 81/2/6 87/2/6
f 83/2/6 84/2/6 87/2/6
f 82/2/6 83/2/6 87/2/6
f 86/2/6 26/2/6 88/2/6
f 87/2/6 86/2/6 88/2/6
